<svg data-name="Сгруппировать 101" xmlns="http://www.w3.org/2000/svg" width="59.156" height="19.191"><path data-name="Контур 112" d="M25.645 18.872h-4.827L23.834.331h4.827zM16.757.331l-4.602 12.75-.545-2.746-1.623-8.334A2.066 2.066 0 007.697.332H.089L0 .646a18.058 18.058 0 015.049 2.119l4.194 16.108h5.031L21.954.332h-5.197zm37.967 18.541h4.432L55.291.331h-3.88a2.218 2.218 0 00-2.228 1.382l-7.2 17.159h5.032l1.006-2.754h6.136zm-5.312-6.558l2.536-6.938 1.426 6.937zm-7.051-7.523L43.05.81a13.933 13.933 0 00-4.341-.808c-2.4 0-8.084 1.047-8.084 6.138 0 4.79 6.676 4.849 6.676 7.365s-5.988 2.065-7.965.479l-.718 4.163a13.527 13.527 0 005.448 1.047c3.294 0 8.263-1.706 8.263-6.348 0-4.821-6.736-5.269-6.736-7.365s4.7-1.827 6.767-.689z" fill="#93a5ff"/></svg>