<svg xmlns="http://www.w3.org/2000/svg" width="128.669" height="41.797"><defs><clipPath id="clip-path"><path id="Контур_130" data-name="Контур 130" class="cls-1" d="M-175.537-121.139h128.668v-41.8h-128.668z" transform="translate(175.537 162.936)"/></clipPath><style>.cls-1{fill:#93a5ff}.cls-3{fill:#003087}.cls-4{fill:#f7f8ff}</style></defs><g id="Сгруппировать_102" data-name="Сгруппировать 102" clip-path="url(#clip-path)"><path id="Контур_120" data-name="Контур 120" class="cls-3" d="M23.45-89.695a4.4 4.4 0 00-3.382-1.076h-4.434a.635.635 0 00-.627.536l-1.846 11.709a.38.38 0 00.087.306.38.38 0 00.289.133h2.737l.687-4.36-.021.137a.633.633 0 01.625-.536h1.3c2.555 0 4.556-1.038 5.14-4.04q.026-.133.045-.26a2.835 2.835 0 00-.6-2.549" transform="translate(22.699 104.484)"/><path id="Контур_126" data-name="Контур 126" class="cls-3" d="M23.45-89.695a4.4 4.4 0 00-3.382-1.076h-4.434a.635.635 0 00-.627.536l-1.846 11.709a.38.38 0 00.087.306.38.38 0 00.289.133h2.737l.687-4.36-.021.137a.633.633 0 01.625-.536h1.3c2.555 0 4.556-1.038 5.14-4.04q.026-.133.045-.26a2.835 2.835 0 00-.6-2.549" transform="translate(22.699 104.484)"/><g id="Сгруппировать_140" data-name="Сгруппировать 140"><path id="Контур_121" data-name="Контур 121" class="cls-4" d="M222.037-68.008c-.167 1.1-1.006 1.1-1.818 1.1h-.462l.324-2.051a.255.255 0 01.252-.215h.212c.552 0 1.074 0 1.343.315a1.023 1.023 0 01.148.853m-.353-2.867h-3.061a.426.426 0 00-.421.359l-1.237 7.848a.255.255 0 00.058.205.255.255 0 00.194.09h1.571a.3.3 0 00.294-.251l.351-2.226a.425.425 0 01.42-.359h.968a3.143 3.143 0 003.484-2.909 2.357 2.357 0 00-.39-1.975 2.839 2.839 0 00-2.231-.782" transform="translate(-142.379 88.369)"/><path id="Контур_122" data-name="Контур 122" class="cls-1" d="M107.151-68.008c-.167 1.1-1.006 1.1-1.818 1.1h-.462l.324-2.051a.255.255 0 01.252-.215h.212c.552 0 1.074 0 1.343.315a1.021 1.021 0 01.149.853m-.353-2.867h-3.061a.426.426 0 00-.42.359l-1.237 7.848a.255.255 0 00.058.205.255.255 0 00.194.089h1.462a.425.425 0 00.42-.359l.334-2.117a.425.425 0 01.42-.359h.968a3.143 3.143 0 003.484-2.91 2.357 2.357 0 00-.39-1.975 2.839 2.839 0 00-2.231-.782m7.106 5.685a1.634 1.634 0 01-1.654 1.4 1.237 1.237 0 01-.984-.4 1.244 1.244 0 01-.23-1.029 1.64 1.64 0 011.642-1.41 1.235 1.235 0 01.977.4 1.262 1.262 0 01.249 1.036m2.043-2.853h-1.466a.255.255 0 00-.253.216l-.064.41-.1-.148a2.086 2.086 0 00-1.731-.615 3.37 3.37 0 00-3.271 2.948 2.767 2.767 0 00.546 2.252 2.293 2.293 0 001.846.745 2.806 2.806 0 002.029-.838l-.066.407a.255.255 0 00.058.206.255.255 0 00.194.089h1.32a.425.425 0 00.42-.359l.792-5.017a.255.255 0 00-.058-.206.255.255 0 00-.194-.089" transform="translate(-49.324 88.369)"/><path id="Контур_123" data-name="Контур 123" class="cls-4" d="M258.366-53.709a1.635 1.635 0 01-1.654 1.4 1.237 1.237 0 01-.984-.4 1.244 1.244 0 01-.23-1.029 1.64 1.64 0 011.642-1.41 1.235 1.235 0 01.977.4 1.262 1.262 0 01.249 1.036m2.043-2.853h-1.466a.255.255 0 00-.253.216l-.064.41-.1-.148a2.086 2.086 0 00-1.731-.615 3.371 3.371 0 00-3.272 2.948 2.767 2.767 0 00.546 2.252 2.293 2.293 0 001.846.745 2.807 2.807 0 002.03-.838l-.066.407a.254.254 0 00.057.206.254.254 0 00.194.089h1.319a.426.426 0 00.421-.359l.792-5.017a.255.255 0 00-.058-.206.255.255 0 00-.194-.089" transform="translate(-171.955 76.887)"/><path id="Контур_124" data-name="Контур 124" class="cls-1" d="M187.038-55.974h-1.474a.424.424 0 00-.351.187l-2.032 2.993-.861-2.876a.426.426 0 00-.408-.3h-1.448a.255.255 0 00-.208.107.255.255 0 00-.034.231l1.622 4.762-1.526 2.153a.255.255 0 00-.018.265.255.255 0 00.226.138H182a.426.426 0 00.349-.183l4.9-7.071a.255.255 0 00.017-.264.255.255 0 00-.226-.137" transform="translate(-112.609 76.3)"/><path id="Контур_125" data-name="Контур 125" class="cls-4" d="M293.675-70.657l-1.257 7.992a.255.255 0 00.058.205.255.255 0 00.194.089h1.263a.426.426 0 00.42-.359l1.239-7.848a.255.255 0 00-.058-.206.255.255 0 00-.194-.089h-1.414a.255.255 0 00-.252.215" transform="translate(-203.494 88.367)"/><path id="Контур_127" data-name="Контур 127" class="cls-1" d="M17.7-87.129a.556.556 0 01.548-.468h3.476a7.307 7.307 0 011.146.083 4.816 4.816 0 01.568.127 3.14 3.14 0 01.612.244 2.834 2.834 0 00-.6-2.549 4.407 4.407 0 00-3.382-1.075h-4.436a.635.635 0 00-.627.536l-1.846 11.706a.38.38 0 00.086.307.38.38 0 00.289.133h2.738l.687-4.361z" transform="translate(22.701 104.482)"/><path id="Контур_128" data-name="Контур 128" class="cls-4" d="M36.515-71.7q-.02.13-.045.26c-.584 3-2.585 4.04-5.14 4.04h-1.3a.632.632 0 00-.624.536l-.666 4.223-.189 1.2a.333.333 0 00.076.268.333.333 0 00.253.117h2.307a.555.555 0 00.548-.468l.022-.118.433-2.758.028-.152a.555.555 0 01.549-.468h.345c2.235 0 3.985-.908 4.5-3.534a3.013 3.013 0 00-.462-2.657 2.2 2.2 0 00-.632-.487" transform="translate(10.236 89.033)"/></g><path id="Контур_129" data-name="Контур 129" d="M39.567-73.874q-.134-.04-.276-.071A4.44 4.44 0 0039-74a7.166 7.166 0 00-1.147-.084h-3.477a.554.554 0 00-.548.469l-.739 4.684-.021.136a.632.632 0 01.624-.536h1.3c2.555 0 4.556-1.038 5.14-4.04a7.12 7.12 0 00.045-.26 3.156 3.156 0 00-.481-.2l-.131-.041" transform="translate(6.572 90.968)" fill="#cfd6fe"/></g></svg>