<svg xmlns="http://www.w3.org/2000/svg" xmlns:xlink="http://www.w3.org/1999/xlink" width="882.89" height="445.933"><defs><linearGradient id="c" x1=".5" y1="-.708" x2=".5" y2=".574" gradientUnits="objectBoundingBox"><stop offset="0" stop-color="#93a5ff"/><stop offset="1" stop-color="#93a5ff" stop-opacity="0"/></linearGradient><linearGradient id="a" x1=".5" y1=".5" x2="2.809" y2=".5" gradientUnits="objectBoundingBox"><stop offset="0" stop-color="#93a5ff" stop-opacity="0"/><stop offset="1" stop-color="#93a5ff"/></linearGradient><linearGradient id="d" x1=".624" y1=".5" x2="1.353" y2=".44" xlink:href="#a"/><linearGradient id="f" x1=".584" y1=".5" x2="2.2" y2=".5" gradientUnits="objectBoundingBox"><stop offset="0" stop-color="#93a5ff" stop-opacity="0"/><stop offset="1" stop-color="#93a5ff" stop-opacity=".471"/></linearGradient><linearGradient id="g" x1=".5" x2=".5" y2="1" gradientUnits="objectBoundingBox"><stop offset="0" stop-color="#aab8ff"/><stop offset="1" stop-color="#93a5ff"/></linearGradient><linearGradient id="l" x1=".64" y1=".5" x2="1.825" y2=".563" gradientUnits="objectBoundingBox"><stop offset="0" stop-color="#93a5ff" stop-opacity="0"/><stop offset="1" stop-color="#93a5ff" stop-opacity=".549"/></linearGradient><linearGradient id="m" x1=".5" y1="-.708" x2=".5" y2=".988" gradientUnits="objectBoundingBox"><stop offset="0" stop-color="#93a5ff"/><stop offset="1" stop-color="#4c66e8" stop-opacity="0"/></linearGradient><filter id="b" x="0" y="0" width="882.89" height="445.933" filterUnits="userSpaceOnUse"><feOffset dx="7" dy="7"/><feGaussianBlur stdDeviation="17.5" result="blur"/><feFlood flood-color="#141414" flood-opacity=".071"/><feComposite operator="in" in2="blur"/><feComposite in="SourceGraphic"/></filter><filter id="e" x="640.006" y="29.972" width="143.292" height="143.292" filterUnits="userSpaceOnUse"><feOffset dy="3"/><feGaussianBlur stdDeviation="8.5" result="blur-2"/><feFlood flood-color="#fff" flood-opacity=".671"/><feComposite operator="in" in2="blur-2"/><feComposite in="SourceGraphic"/></filter><filter id="h" x="419.35" y="81.125" width="80.364" height="77.171" filterUnits="userSpaceOnUse"><feOffset dy="3"/><feGaussianBlur stdDeviation="8.5" result="blur-3"/><feFlood flood-color="#93dcff"/><feComposite operator="in" in2="blur-3"/><feComposite in="SourceGraphic"/></filter><filter id="i" x="419.35" y="95.274" width="80.364" height="77.171" filterUnits="userSpaceOnUse"><feOffset dy="3"/><feGaussianBlur stdDeviation="8.5" result="blur-4"/><feFlood flood-color="#93dcff"/><feComposite operator="in" in2="blur-4"/><feComposite in="SourceGraphic"/></filter><filter id="j" x="419.35" y="109.422" width="80.364" height="77.171" filterUnits="userSpaceOnUse"><feOffset dy="3"/><feGaussianBlur stdDeviation="8.5" result="blur-5"/><feFlood flood-color="#93dcff"/><feComposite operator="in" in2="blur-5"/><feComposite in="SourceGraphic"/></filter><filter id="k" x="419.35" y="123.57" width="80.364" height="77.171" filterUnits="userSpaceOnUse"><feOffset dy="3"/><feGaussianBlur stdDeviation="8.5" result="blur-6"/><feFlood flood-color="#93dcff"/><feComposite operator="in" in2="blur-6"/><feComposite in="SourceGraphic"/></filter></defs><g transform="translate(-.004 -.004)" filter="url(#b)"><path data-name="Blob" d="M124.162 95.725c87.153-37.954 202.418 27.9 333.149 14.655s246-98.994 303.629-49.8 29.337 93.491 21.829 137.292 82.224 98.293 16.269 157.68-170.194-32.537-265.3-28.783S388.18 380.88 310.98 385.588s-171.446-8.76-230.263-81.343-43.708-170.565 43.445-208.52z" fill="#363f6d" opacity=".83"/></g><g data-name="Сгруппировать 129"><g data-name="Сгруппировать 17" opacity=".6"><path data-name="Контур 38" d="M372.072 314.016l-.059 23.355 32.939 21.07-.007-23.251z" transform="translate(218.301 -68.042)" fill="url(#c)"/><path data-name="Контур 36" d="M623.21 224.928l-32.849 21.041 32.87 21.18 32.918-21.18z" fill="#8c9efc"/></g><g data-name="Сгруппировать 18"><path data-name="Контур 37" d="M405.044 314v23.36l-32.9 21.066-.041-23.243z" transform="translate(251.422 -81.653)" fill="url(#c)"/><path data-name="Контур 36" d="M623.528 211.306l-32.85 21.041 32.87 21.18 32.918-21.18z" fill="#c2cbff" opacity=".6"/></g><g data-name="Сгруппировать 17" opacity=".6"><path data-name="Контур 38" d="M372.056 314.016l-.044 17.109 24.13 15.435v-17.033z" transform="translate(155.721 -41.519)" fill="url(#c)"/><path data-name="Контур 36" d="M551.833 257.079l-24.064 15.413 24.081 15.517 24.113-15.516z" fill="#8c9efc"/></g><g data-name="Сгруппировать 18"><path data-name="Контур 37" d="M396.236 314v17.113l-24.1 15.432-.03-17.027z" transform="translate(179.959 -51.486)" fill="url(#c)"/><path data-name="Контур 36" d="M552.065 247.1l-24.064 15.413 24.081 15.517 24.113-15.516z" fill="#c2cbff" opacity=".6"/></g></g><path d="M633.379 459.379h-152.3v-72.922h152.3z" transform="translate(-447.616 -198.225)" fill="url(#a)"/><path d="M629.851 96.612l106.284 71.987" fill="none" stroke="#8c9efc" stroke-linecap="round" stroke-width="4" stroke-dasharray="5 15"/><path data-name="Контур 32" d="M711.44 81.475l45.915 29.41-45.948 29.607-46.006-29.608z" fill="#8c9efc"/><path data-name="Shadow" d="M664.353 437.555l-183.272.982v-52.08h184.348z" transform="translate(46.775 -238.155)" fill="url(#d)"/><path data-name="Контур 31" d="M665.401 110.884v59.219l45.983 29.445.058-59.056z" fill="#798cea"/><path data-name="Контур 30" d="M757.34 110.891l.083 59.213-46.04 29.451.009-59.067z" fill="#93a5ff"/><path data-name="Контур 33" d="M672.163 124.259v5.722l4.443 2.845.006-5.706z" fill="#fff" opacity=".64"/><path data-name="Контур 72" d="M671.436 132.983v5.722l4.443 2.845.006-5.706z" fill="#fff" opacity=".64"/><path data-name="Контур 34" d="M679.094 128.387v5.722l24.547 16.161.006-5.706z" fill="rgba(41,62,168,0.62)"/><path data-name="Контур 71" d="M678.367 137.111v5.722l24.547 16.161.006-5.706z" fill="rgba(41,62,168,0.62)"/><g data-name="Сгруппировать 17" opacity=".6"><path data-name="Контур 38" d="M418.592 314.3v11.933l-45.883 29.337v-11.743z" transform="translate(338.669 -215.117)" fill="url(#c)"/><g transform="translate(-.005 .002)" filter="url(#e)"><path data-name="Контур 36" d="M711.88 69.516l45.917 29.41-45.95 29.607-46.343-30.227z" fill="#c2cbff" opacity=".6"/></g></g><g data-name="Сгруппировать 18" transform="translate(665.4 98.147)" fill="url(#c)"><path data-name="Контур 37" d="M0 0l.056 12.918L46.04 42.207v-12.6z"/><path data-name="Контур 38" d="M91.891 1.089v11.677L45.979 42.328l.012-11.86z"/></g><path data-name="Контур 73" d="M670.921 158.141v9.788l32.066 20.3.04-9.556z" fill="#445294"/><g transform="translate(522.422 91.024)"><path data-name="Контур 1" d="M34.468 20.02L.05 42.067 34.492 64.26l34.485-22.193z" fill="#8c9efc"/><path data-name="Контур 7" d="M68.978 42.066v44.39L34.51 108.528l-.043-44.267z" fill="#93a5ff"/><path data-name="Контур 9" d="M66.129 49.75v3.582l-2.781 1.781v-3.572zm0 5.849v3.582l-2.781 1.781V57.39zm0 5.85v3.582l-2.781 1.781V63.24zm0 5.849v3.582l-2.781 1.781v-3.572zm0 5.85v3.582l-2.781 1.781v-3.572zm0 5.849v3.582l-2.781 1.781v-3.572z" opacity=".64" fill="#fff"/><path data-name="Контур 8" d="M.063 42.071L.001 86.456l34.511 22.075-.007-44.275z" fill="#798cea"/><path data-name="Контур 10" d="M44.7 63.728v3.582l-5.859 3.792V67.53zm0 6.013v3.582l-5.859 3.792v-3.572zm0 6.013v3.582l-5.859 3.792v-3.572zm0 5.697v3.582l-5.859 3.792v-3.572zm0 5.697v3.582l-5.859 3.792V90.95zm0 6.013v3.582l-5.859 3.792v-3.572z" fill="#93dcff"/><path data-name="dash_line" fill="none" stroke="#8c9efc" stroke-linecap="round" stroke-width="4" stroke-dasharray="5 15" d="M92.319 0L24 45.949"/><path data-name="Контур 9" d="M61.791 52.334v3.582L46.423 66.034v-3.572zm0 5.849v3.582L46.423 71.883v-3.572zm0 5.85v3.582L46.423 77.733v-3.572zm0 5.849v3.582L46.423 83.582V80.01zm0 5.85v3.582L46.423 89.432V85.86zm0 5.849v3.582L46.423 95.281v-3.572z" fill="rgba(41,62,168,0.62)"/><g data-name="Сгруппировать 2"><path data-name="Контур 11" d="M3.061 49.75v3.582l2.781 1.781v-3.572z" fill="#fff" opacity=".64"/><path data-name="Контур 12" d="M7.717 52.651v3.582l15.367 10.118v-3.572z" fill="#93dcff"/></g><ellipse data-name="Эллипс 1" cx="7.596" cy="11.393" rx="7.596" ry="11.393" transform="rotate(157 4.956 45.419)" fill="#445294"/></g><g transform="translate(288.644 14.03)"><path data-name="Shadow" d="M683.39 469.621H481.081v-83.164H683.39z" transform="translate(-481.081 -241.443)" fill="url(#f)"/><path data-name="Контур 1" d="M16.838 76.4l76.27 16.712L76.561 16.6 0 0z" transform="rotate(135 120.33 88.409)" fill="url(#g)"/><path data-name="Контур 7" d="M267.931 65.837v120.169l-65.845 42.164-.082-119.933z" fill="#93a5ff"/><path data-name="Контур 8" d="M136.278 65.847l-.119 120.16 65.927 42.172-.013-119.948z" fill="#798cea"/><g data-name="middle_lines" fill="rgba(41,62,168,0.62)"><path data-name="Контур 9" d="M254.2 87.222v6.843l-29.357 19.328-.007-6.824zm0 11.174v6.843l-29.357 19.328-.007-6.824zm0 11.175v6.843l-29.357 19.328-.007-6.824zm0 11.174v6.843l-29.357 19.328-.007-6.824z"/><path data-name="Контур 60" d="M254.2 153.758v6.843l-29.357 19.328-.007-6.824z"/><path data-name="Контур 9" d="M254.2 131.92v6.843l-29.357 19.328-.007-6.824z"/><path data-name="Контур 59" d="M254.2 164.932v6.843l-29.357 19.328-.007-6.824z"/><path data-name="Контур 9" d="M254.2 143.094v6.843l-29.357 19.328-.007-6.824z"/><path data-name="Контур 58" d="M254.2 176.107v6.843l-29.357 19.328-.007-6.824z"/></g><g data-name="right_squares" fill="#fff"><path data-name="Контур 9" d="M262.489 82.285v6.843l-5.313 3.4-.007-6.824zm0 11.174v6.843l-5.313 3.4-.007-6.824zm0 9.996v6.843l-5.313 3.4-.007-6.824zm0 11.175v6.843l-5.313 3.4-.007-6.824z" opacity=".64"/><path data-name="Контур 57" d="M262.489 148.231v6.843l-5.313 3.4-.007-6.824z" opacity=".64"/><path data-name="Контур 9" d="M262.489 125.804v6.843l-5.313 3.4-.007-6.824z" opacity=".64"/><path data-name="Контур 56" d="M262.489 159.406v6.843l-5.313 3.4-.007-6.824z" opacity=".64"/><path data-name="Контур 9" d="M262.489 136.978v6.843l-5.313 3.4-.007-6.824z" opacity=".64"/><path data-name="Контур 55" d="M262.489 170.58v6.843l-5.313 3.4-.007-6.824z" opacity=".64"/></g><g fill="#93dcff"><path data-name="Контур 10" d="M221.552 108.988v6.843l-11.194 7.245-.007-6.824zm0 11.487v6.843l-11.194 7.245-.007-6.824zm0 11.488v6.843l-11.194 7.245-.007-6.824zm0 10.882v6.843l-11.194 7.245-.007-6.824z"/><path data-name="Контур 63" d="M221.552 175.857v6.843l-11.194 7.245-.007-6.824z"/><path data-name="Контур 10" d="M221.552 153.728v6.843l-11.194 7.245-.007-6.824z"/><path data-name="Контур 62" d="M221.552 186.74v6.843l-11.194 7.245-.007-6.824z"/><path data-name="Контур 10" d="M221.552 165.215v6.843l-11.194 7.245-.007-6.824z"/><path data-name="Контур 61" d="M221.552 198.228v6.843l-11.194 7.245-.007-6.824z"/></g><ellipse cx="14.51" cy="21.765" rx="14.51" ry="21.765" transform="rotate(157 75.02 112.792)" fill="#445294"/><g data-name="Сгруппировать 2"><g data-name="Сгруппировать 22"><path data-name="Контур 11" d="M147.312 84.054v6.843l5.313 3.4.007-6.824z" fill="#fff" opacity=".64"/><g transform="translate(-288.648 -14.026)" filter="url(#h)"><path data-name="Контур 12" d="M444.846 103.63v6.843l29.357 19.328.007-6.824z" fill="#93dcff"/></g></g><g data-name="Сгруппировать 23"><path data-name="Контур 11" d="M147.312 98.202v6.843l5.313 3.4.007-6.824z" fill="#fff" opacity=".64"/><g transform="translate(-288.648 -14.028)" filter="url(#i)"><path data-name="Контур 12" d="M444.846 117.77v6.843l29.357 19.328.007-6.824z" fill="#93dcff"/></g></g><g data-name="Сгруппировать 24"><path data-name="Контур 11" d="M147.312 112.35v6.843l5.313 3.4.007-6.824z" fill="#fff" opacity=".64"/><g transform="translate(-288.648 -14.03)" filter="url(#j)"><path data-name="Контур 12" d="M444.846 131.92v6.843l29.357 19.328.007-6.824z" fill="#93dcff"/></g></g><g data-name="Сгруппировать 25"><path data-name="Контур 11" d="M147.312 126.498v6.843l5.313 3.4.007-6.824z" fill="#fff" opacity=".64"/><g transform="translate(-288.648 -14.032)" filter="url(#k)"><path data-name="Контур 12" d="M444.846 146.07v6.843l29.357 19.328.007-6.824z" fill="#93dcff"/></g></g></g><path data-name="dash_line" fill="none" stroke="#8c9efc" stroke-linecap="round" stroke-width="4" stroke-dasharray="5 15" d="M175.188 166.715l-68.319 45.949"/></g><path data-name="shadow" d="M641.077 438.537h-160v-52.08h160z" transform="translate(-323.537 -121.326)" fill="url(#l)"/><path data-name="dash_line" d="M297.205 275.152l-94.129-63.755" fill="none" stroke="#8c9efc" stroke-linecap="round" stroke-width="4" stroke-dasharray="5 15"/><path data-name="Контур 40" d="M368.51 182.606l39.859 25.529-91.596 57.838-39.939-25.701z" fill="#8c9efc"/><path data-name="Контур 42" d="M276.809 240.254l.03 50.778 39.965 26v-51.7z" fill="#798cea"/><path data-name="Контур 64" d="M284.503 255.263v31.513l24.469 15.669.031-31.426z" fill="#445294"/><path data-name="Контур 41" d="M408.364 208.124l.147 51.387-91.711 57.5-.007-51.643z" fill="#93a5ff"/><g data-name="lines"><path data-name="Контур 45" d="M402.265 220.098v6.843l-50.541 32.038-.007-6.824zm0 10.062v6.843l-50.541 32.038-.007-6.824zm0 10.062v6.843l-50.541 32.038-.007-6.824zm0 10.062v6.843l-50.541 32.038-.007-6.824z" fill="rgba(41,62,168,0.62)"/></g><path data-name="Контур 46" d="M347.374 254.044v6.843l-11.194 7.245-.007-6.824zm0 10.062v6.843l-11.194 7.245-.007-6.824zm0 10.062v6.843l-11.194 7.245-.007-6.824zm0 10.062v6.843l-11.194 7.245-.007-6.824z" fill="#93dcff"/><path data-name="Контур 47" d="M331.646 263.883v6.843l-5.313 3.4-.007-6.824zm0 10.062v6.843l-5.313 3.4-.007-6.824zm0 10.062v6.843l-5.313 3.4-.007-6.824zm0 10.062v6.843l-5.313 3.4-.007-6.824z" opacity=".64" fill="#fff"/><path data-name="Контур 32" d="M185.73 119.995l-54.913 35.173 54.956 35.412 55.018-35.411z" fill="#7a8df1"/><path data-name="Контур 31" d="M240.791 155.169v70.825l-54.994 35.216-.069-70.629z" fill="#93a5ff"/><path data-name="Контур 30" d="M130.832 155.177l-.1 70.817 55.063 35.222-.011-70.643z" fill="#798cea"/><g data-name="tonnel" transform="translate(137.221 192.35)" fill="#445294"><ellipse data-name="Эллипс 3" cx="12.119" cy="18.179" rx="12.119" ry="18.179" transform="rotate(23 32.043 177.447)"/><ellipse data-name="Эллипс 4" cx="12.119" cy="18.179" rx="12.119" ry="18.179" transform="rotate(157 14.843 20.435)"/></g><g data-name="lines"><path data-name="Контур 33" d="M232.704 171.165v6.843l-5.313 3.4-.007-6.824z" fill="#fff" opacity=".64"/><path data-name="Контур 34" d="M224.414 176.102v6.843l-29.357 19.328-.007-6.824z" fill="rgba(41,62,168,0.62)"/></g><g data-name="Upper_rooflayer"><path data-name="Контур 36" d="M185.2 105.696l-54.378 35.2 54.957 35.406 55.059-35.465z" fill="#8c9efc"/><path data-name="Контур 37" d="M427.169 314v37.094l-54.994 35.372-.067-37.054z" transform="translate(-186.378 -195.902)" fill="url(#c)"/><path data-name="Контур 38" d="M372.1 314.016v37.2l54.953 35.421v-37.225z" transform="translate(-241.268 -195.91)" fill="url(#m)"/><path data-name="Контур 36" d="M185.73 82.924l-54.913 35.173 54.956 35.412 55.018-35.411z" fill="#c2cbff" opacity=".6"/></g></svg>