<svg xmlns="http://www.w3.org/2000/svg" width="29.235" height="24.126"><path data-name="Контур 145" d="M19.2 1h1.277l.467.093a4.991 4.991 0 01.847.238 6.026 6.026 0 01.737.344 7.005 7.005 0 01.646.4 3.975 3.975 0 01.516.427.715.715 0 00.7.118 9.427 9.427 0 001.031-.307q.553-.2 1.093-.442t.66-.311l.126-.074v-.007l.025-.012.025-.012.025-.012.025-.013v-.007h.014v-.007l.035-.016h.025v.037l-.007.037-.018.026-.013.04-.012.025-.012.025-.012.036a.853.853 0 00-.025.1 4.119 4.119 0 01-.233.491 6.142 6.142 0 01-.553.872 4.286 4.286 0 01-.594.668q-.265.228-.351.319a1.054 1.054 0 01-.209.172l-.123.081-.025.012-.025.012v.007h-.014v.007l-.025.012-.025.012v.007h-.014v.014h-.014v.007h.123l.688-.147a12.3 12.3 0 001.314-.356l.663-.221L28 3.7l.037-.012.025-.012.025-.012.025-.012.025-.012.049-.007h.049v.049h-.012l-.012.007v.007h-.014v.014h-.014v.014h-.007l-.012.025-.012.025h-.007l-.312.417a3.452 3.452 0 01-.332.417q-.025.007-.069.074a7.039 7.039 0 01-.521.548 12.359 12.359 0 01-.938.852 1.163 1.163 0 00-.467.923q-.007.545-.057 1.233t-.184 1.486a17.714 17.714 0 01-.417 1.8 16.411 16.411 0 01-.688 1.965 15.307 15.307 0 01-.847 1.719q-.442.761-.81 1.289t-.749.995q-.381.467-.963 1.051t-.639.639q-.056.054-.481.4t-.909.7a10.511 10.511 0 01-.889.582q-.405.233-.977.533a11.628 11.628 0 01-1.233.56q-.663.258-1.4.479a12.785 12.785 0 01-1.424.344q-.688.123-1.559.209l-.872.086v.012h-1.6v-.012l-.232.025q-.209-.012-.344-.025t-1.019-.135q-.884-.123-1.388-.246t-1.5-.467a14.575 14.575 0 01-1.7-.695l-.884-.442q-.184-.093-.4-.226l-.221-.135v-.007h-.014v-.007l-.032-.015-.025-.012v-.007h-.014v-.014H1V20.6h.025l.025.007.111.012q.111.012.6.037t1.044 0a10.983 10.983 0 001.13-.111 12.727 12.727 0 001.365-.292 10.071 10.071 0 001.444-.5q.656-.29.933-.432a9.086 9.086 0 00.84-.521l.565-.381v-.007h.014v-.014h.014v-.007l.025-.007h.025v-.025l.007-.025h.007v-.007l-.2-.012-.381-.025a3.692 3.692 0 01-.577-.111 5.539 5.539 0 01-.847-.295 6.532 6.532 0 01-.884-.467 4.351 4.351 0 01-.621-.449q-.189-.177-.491-.5a4.969 4.969 0 01-.521-.67 6.024 6.024 0 01-.422-.793l-.2-.447-.012-.037-.012-.037-.007-.025v-.025h.037l.037.007.27.037a6 6 0 00.847.025 6.56 6.56 0 00.8-.049q.221-.037.27-.049l.049-.012.061-.012.061-.012v-.007h.014v-.007l-.049-.012-.018-.043-.049-.012-.049-.012-.049-.012q-.049-.012-.172-.049t-.663-.27a5.07 5.07 0 01-.86-.454A5.936 5.936 0 013.927 13a6.95 6.95 0 01-.631-.683 4.912 4.912 0 01-.614-.97 5.9 5.9 0 01-.405-1.047A5.7 5.7 0 012.1 9.276l-.044-.516h.025l.025.007.025.012.025.012.025.012.025.012.381.172a4.8 4.8 0 00.945.295q.565.123.675.135l.111.012h.221v-.007h-.014v-.014L4.5 9.4h-.007v-.007l-.025-.012-.025-.012v-.007h-.014v-.007l-.025-.012-.025-.012v-.007l-.211-.157a3.22 3.22 0 01-.422-.4Q3.5 8.5 3.284 8.232a3.982 3.982 0 01-.393-.577 7 7 0 01-.363-.781 5.544 5.544 0 01-.287-.95 5.41 5.41 0 01-.111-.945 5.954 5.954 0 01.025-.8 5.216 5.216 0 01.145-.748 5.836 5.836 0 01.319-.884l.209-.467.012-.037.012-.037h.007v-.014h.014v.007L2.9 2h.014v.014h.007l.012.025.012.025h.007v.007l.332.368q.332.368.786.823a4.618 4.618 0 00.5.472.36.36 0 01.123.113A5.013 5.013 0 005.2 4.3q.418.344 1.093.8t1.5.9a14.617 14.617 0 001.768.8q.945.356 1.326.467t1.3.282q.921.172 1.388.221t.639.056h.172v-.037l-.007-.037-.049-.307a5.771 5.771 0 01-.049-.86 5.636 5.636 0 01.086-1.019 6.037 6.037 0 01.258-.945 5.051 5.051 0 01.336-.769 7.561 7.561 0 01.437-.656 5.3 5.3 0 01.7-.761 5.165 5.165 0 01.982-.7 6.386 6.386 0 011.012-.465 4.749 4.749 0 01.786-.209A2.731 2.731 0 0019.2 1z" fill="none" stroke="#93a5ff" stroke-linejoin="round" stroke-width="2"/></svg>