<svg xmlns="http://www.w3.org/2000/svg" width="25.725" height="25.726"><path data-name="Контур 140" d="M8.576 12.863a4.288 4.288 0 114.287 4.288 4.288 4.288 0 01-4.287-4.288m-2.318 0a6.605 6.605 0 106.605-6.605 6.6 6.6 0 00-6.605 6.605M18.186 6a1.544 1.544 0 101.544-1.547A1.544 1.544 0 0018.186 6M7.666 23.333a7.109 7.109 0 01-2.389-.442 4 4 0 01-1.48-.962 3.969 3.969 0 01-.962-1.479 7.1 7.1 0 01-.442-2.389c-.062-1.356-.075-1.763-.075-5.2s.013-3.841.075-5.2a7.156 7.156 0 01.442-2.389A4 4 0 013.8 3.8a3.964 3.964 0 011.48-.962 7.1 7.1 0 012.389-.442c1.356-.062 1.763-.075 5.2-.075s3.841.013 5.2.075a7.156 7.156 0 012.389.442 3.985 3.985 0 011.48.962 3.985 3.985 0 01.962 1.48 7.1 7.1 0 01.442 2.389c.062 1.357.075 1.763.075 5.2s-.012 3.841-.075 5.2a7.136 7.136 0 01-.442 2.389 4.259 4.259 0 01-2.442 2.441 7.1 7.1 0 01-2.389.442c-1.356.062-1.763.075-5.2.075s-3.841-.012-5.2-.075M7.56.078a9.432 9.432 0 00-3.122.6 6.309 6.309 0 00-2.279 1.481A6.285 6.285 0 00.675 4.438a9.435 9.435 0 00-.6 3.122C.015 8.931 0 9.37 0 12.863s.015 3.932.078 5.3a9.434 9.434 0 00.6 3.122 6.288 6.288 0 001.484 2.279 6.324 6.324 0 002.279 1.484 9.44 9.44 0 003.122.6c1.372.062 1.81.078 5.3.078s3.932-.015 5.3-.078a9.434 9.434 0 003.122-.6 6.577 6.577 0 003.762-3.762 9.408 9.408 0 00.6-3.122c.062-1.373.077-1.81.077-5.3s-.015-3.932-.077-5.3a9.431 9.431 0 00-.6-3.122 6.326 6.326 0 00-1.484-2.279A6.294 6.294 0 0021.289.675a9.42 9.42 0 00-3.122-.6C16.8.016 16.357 0 12.864 0S8.932.015 7.56.078" fill="#93a5ff"/><path data-name="Контур 141" d="M8.576 12.863a4.288 4.288 0 114.287 4.288 4.288 4.288 0 01-4.287-4.288m-2.318 0a6.605 6.605 0 106.605-6.605 6.6 6.6 0 00-6.605 6.605M18.186 6a1.544 1.544 0 101.544-1.547A1.544 1.544 0 0018.186 6M7.666 23.333a7.109 7.109 0 01-2.389-.442 4 4 0 01-1.48-.962 3.969 3.969 0 01-.962-1.479 7.1 7.1 0 01-.442-2.389c-.062-1.356-.075-1.763-.075-5.2s.013-3.841.075-5.2a7.156 7.156 0 01.442-2.389A4 4 0 013.8 3.8a3.964 3.964 0 011.48-.962 7.1 7.1 0 012.389-.442c1.356-.062 1.763-.075 5.2-.075s3.841.013 5.2.075a7.156 7.156 0 012.389.442 3.985 3.985 0 011.48.962 3.985 3.985 0 01.962 1.48 7.1 7.1 0 01.442 2.389c.062 1.357.075 1.763.075 5.2s-.012 3.841-.075 5.2a7.136 7.136 0 01-.442 2.389 4.259 4.259 0 01-2.442 2.441 7.1 7.1 0 01-2.389.442c-1.356.062-1.763.075-5.2.075s-3.841-.012-5.2-.075M7.56.078a9.432 9.432 0 00-3.122.6 6.309 6.309 0 00-2.279 1.481A6.285 6.285 0 00.675 4.438a9.435 9.435 0 00-.6 3.122C.015 8.931 0 9.37 0 12.863s.015 3.932.078 5.3a9.434 9.434 0 00.6 3.122 6.288 6.288 0 001.484 2.279 6.324 6.324 0 002.279 1.484 9.44 9.44 0 003.122.6c1.372.062 1.81.078 5.3.078s3.932-.015 5.3-.078a9.434 9.434 0 003.122-.6 6.577 6.577 0 003.762-3.762 9.408 9.408 0 00.6-3.122c.062-1.373.077-1.81.077-5.3s-.015-3.932-.077-5.3a9.431 9.431 0 00-.6-3.122 6.326 6.326 0 00-1.484-2.279A6.294 6.294 0 0021.289.675a9.42 9.42 0 00-3.122-.6C16.8.016 16.357 0 12.864 0S8.932.015 7.56.078" fill="transparent"/></svg>