<svg xmlns="http://www.w3.org/2000/svg" width="50.28" height="50.28"><g data-name="layout (1)" fill="#fff"><g data-name="Контур 102" stroke-linecap="square"><path d="M2.514 50.23A2.467 2.467 0 01.05 47.766V2.514A2.467 2.467 0 012.514.05h45.252c.658 0 1.277.256 1.742.722.465.465.722 1.084.722 1.742v45.252c0 .658-.257 1.277-.722 1.742a2.448 2.448 0 01-1.742.722H2.514zm-.888-41.9v39.436c0 .49.398.888.888.888h45.252a.89.89 0 00.888-.888V8.33H1.626zm.888-6.704a.889.889 0 00-.888.888v4.24h47.028v-4.24a.889.889 0 00-.888-.888H2.514z"/><path d="M2.514.1A2.417 2.417 0 00.1 2.514v45.252a2.417 2.417 0 002.414 2.414h45.252a2.417 2.417 0 002.414-2.414V2.514c0-.645-.251-1.251-.707-1.707A2.398 2.398 0 0047.766.1H2.514m46.19 6.704H1.576v-4.29a.94.94 0 01.938-.938h45.252a.94.94 0 01.938.938v4.29m-.938 41.9H2.514a.94.94 0 01-.938-.938V8.28h47.128v39.486a.94.94 0 01-.938.938M2.514 0h45.252a2.514 2.514 0 012.514 2.514v45.252a2.514 2.514 0 01-2.514 2.514H2.514A2.514 2.514 0 010 47.766V2.514A2.514 2.514 0 012.514 0zm46.09 6.704v-4.19a.838.838 0 00-.838-.838H2.514a.838.838 0 00-.838.838v4.19h46.928zm-.838 41.9a.838.838 0 00.838-.838V8.38H1.676v39.386c0 .462.375.838.838.838h45.252z" fill="#93a5ff"/></g><path data-name="Контур 103" d="M3.595 3.595a.866.866 0 00-.243.595.838.838 0 00.067.318.782.782 0 00.176.277.841.841 0 001.19-1.19.877.877 0 00-1.19 0z"/><path data-name="Контур 104" d="M6.947 3.595a.882.882 0 00-.243.595 1.136 1.136 0 00.017.163.533.533 0 00.05.151.634.634 0 00.075.151 1.321 1.321 0 00.1.126.85.85 0 001.19 0l.1-.126a.634.634 0 00.075-.151.533.533 0 00.052-.151 1.136 1.136 0 00.017-.168.838.838 0 00-1.433-.595z"/><path data-name="Контур 105" d="M10.299 3.595a.841.841 0 101.19 0 .877.877 0 00-1.19 0z"/><path data-name="Контур 106" d="M46.928 10.056H3.352v11.732h43.576zm-1.676 10.056H5.028v-8.38h40.224z"/><path data-name="Контур 107" d="M18.436 23.464H3.352v23.464h15.084zM16.76 45.252H5.028V25.14H16.76z"/><path data-name="Контур 108" d="M20.112 34.358h26.816V23.464H20.112zm1.676-9.218h23.464v7.542H21.788z"/><path data-name="Контур 109" d="M20.112 46.928h26.816V36.034H20.112zm1.676-9.218h23.464v7.542H21.788z"/></g></svg>