<svg xmlns="http://www.w3.org/2000/svg" width="13.38" height="13.255"><g data-name="user-icon" fill="#93a5ff"><path data-name="user-icon-top" d="M6.69 7.023a3.286 3.286 0 003-3.511c0-2.689-1.343-3.511-3-3.511s-3 .822-3 3.511a3.286 3.286 0 003 3.511z"/><path data-name="user-icon-bottom" d="M13.315 12.191l-1.514-3.41a.76.76 0 00-.342-.364L9.11 7.194a.151.151 0 00-.161.014 3.706 3.706 0 01-4.518 0 .152.152 0 00-.161-.014L1.921 8.417a.759.759 0 00-.342.364l-1.513 3.41a.757.757 0 00.692 1.064h11.865a.757.757 0 00.692-1.064z"/></g></svg>