<svg xmlns="http://www.w3.org/2000/svg" width="270.062" height="138.327" viewBox="0 0 270.062 138.327">
  <g id="Logos" transform="translate(-1545.039 -1502.728)">
    <g id="Сгруппировать_87" data-name="Сгруппировать 87" transform="translate(1464 1516.71)">
      <rect id="Прямоугольник_2" data-name="Прямоугольник 2" width="9.227" height="8.879" rx="4.44" transform="translate(287.175 111.735) rotate(135)" fill="#93a5ff"/>
      <rect id="Прямоугольник_1" data-name="Прямоугольник 1" width="9.227" height="24.327" rx="4.614" transform="translate(265.039 100.018)" fill="#93a5ff"/>
    </g>
    <g id="Сгруппировать_88" data-name="Сгруппировать 88" transform="translate(1426 1402.71)" opacity="0.36">
      <rect id="Прямоугольник_2-2" data-name="Прямоугольник 2" width="8.363" height="8.047" rx="4.024" transform="translate(285.1 110.637) rotate(135)" fill="#93a5ff"/>
      <rect id="Прямоугольник_1-2" data-name="Прямоугольник 1" width="8.363" height="22.047" rx="4.181" transform="translate(265.039 100.018)" fill="#93a5ff"/>
    </g>
    <g id="Сгруппировать_89" data-name="Сгруппировать 89" transform="translate(1280 1440.71)">
      <rect id="Прямоугольник_2-3" data-name="Прямоугольник 2" width="11.307" height="10.88" rx="5.44" transform="translate(292.163 114.375) rotate(135)" fill="#93a5ff"/>
      <rect id="Прямоугольник_1-3" data-name="Прямоугольник 1" width="11.307" height="29.809" rx="5.653" transform="translate(265.039 100.018)" fill="#93a5ff"/>
    </g>
    <g id="Сгруппировать_92" data-name="Сгруппировать 92" transform="translate(1387.482 1463.71)" opacity="0.5">
      <rect id="Прямоугольник_2-4" data-name="Прямоугольник 2" width="8.537" height="8.215" rx="4.107" transform="translate(285.518 110.858) rotate(135)" fill="#93a5ff"/>
      <rect id="Прямоугольник_1-4" data-name="Прямоугольник 1" width="8.537" height="22.506" rx="4.268" transform="translate(265.039 100.018)" fill="#93a5ff"/>
    </g>
    <g id="Сгруппировать_90" data-name="Сгруппировать 90" transform="translate(1328 1494.71)" opacity="0.51">
      <rect id="Прямоугольник_2-5" data-name="Прямоугольник 2" width="8.363" height="8.047" rx="4.024" transform="translate(285.1 110.637) rotate(135)" fill="#93a5ff"/>
      <rect id="Прямоугольник_1-5" data-name="Прямоугольник 1" width="8.363" height="22.047" rx="4.181" transform="translate(265.039 100.018)" fill="#93a5ff"/>
    </g>
    <g id="Сгруппировать_91" data-name="Сгруппировать 91" transform="translate(1530 1444.71)" opacity="0.5">
      <rect id="Прямоугольник_2-6" data-name="Прямоугольник 2" width="8.363" height="8.047" rx="4.024" transform="translate(285.1 110.637) rotate(135)" fill="#93a5ff"/>
      <rect id="Прямоугольник_1-6" data-name="Прямоугольник 1" width="8.363" height="22.047" rx="4.181" transform="translate(265.039 100.018)" fill="#93a5ff"/>
    </g>
  </g>
</svg>
